<svg id="Layer_1" data-name="Layer 1" xmlns="http://www.w3.org/2000/svg" viewBox="0 0 300 120">
  <defs>
    <style>
      .cls-1 {
        fill: #ffad1f;
      }

      .cls-2 {
        fill: #fff;
        opacity: 0.1;
      }

      .cls-3 {
        fill: #383838;
      }
    </style>
  </defs>
  <title>mad-logo</title>
  <g id="mad-logo">
    <rect id="background" class="cls-1" width="300" height="120" rx="13.42"/>
    <g id="shapes">
      <polygon class="cls-2" points="163.38 0 90.87 0 148.06 57.18 163.38 0"/>
      <path class="cls-2" d="M338.43,249.86,228.47,190,230,250h106.6A14.13,14.13,0,0,0,338.43,249.86Z" transform="translate(-50 -130)"/>
      <path class="cls-2" d="M340.11,213.07,350,176.14V143.42A13.46,13.46,0,0,0,336.58,130H257Z" transform="translate(-50 -130)"/>
      <path class="cls-2" d="M63.42,250h77L136,194.27,57.19,248.45A13.34,13.34,0,0,0,63.42,250Z" transform="translate(-50 -130)"/>
      <path class="cls-2" d="M80.05,211.26,109.34,130H63.42A13.46,13.46,0,0,0,50,143.42v32.26Z" transform="translate(-50 -130)"/>
    </g>
    <g id="mad">
      <path class="cls-3" d="M172.28,156.82v66.46a1.77,1.77,0,0,1-1.77,1.77H158.14a1.77,1.77,0,0,1-1.77-1.77l0-38.88a.44.44,0,0,0-.88-.06l-5.25,39.17a1.78,1.78,0,0,1-1.75,1.54h-8.21a1.77,1.77,0,0,1-1.75-1.52l-5.58-38.59a.44.44,0,0,0-.88.06l0,38.28a1.77,1.77,0,0,1-1.77,1.77H117.89a1.77,1.77,0,0,1-1.77-1.77V156.82a1.77,1.77,0,0,1,1.77-1.77h20.27a1.76,1.76,0,0,1,1.75,1.48c.63,3.88,1.26,8.34,1.92,13.4l2.12,14.6a.44.44,0,0,0,.88,0l3.57-27.93a1.77,1.77,0,0,1,1.76-1.54h20.35A1.77,1.77,0,0,1,172.28,156.82Z" transform="translate(-50 -130)"/>
      <path class="cls-3" d="M220.13,156.56,230,223a1.78,1.78,0,0,1-1.76,2H213.35a1.77,1.77,0,0,1-1.76-1.64l-.72-9.31a1.78,1.78,0,0,0-1.77-1.63h-3.25a1.76,1.76,0,0,0-1.76,1.61l-.82,9.35a1.76,1.76,0,0,1-1.76,1.62H186.34a1.78,1.78,0,0,1-1.76-2l8.82-66.45a1.76,1.76,0,0,1,1.75-1.54h23.23A1.77,1.77,0,0,1,220.13,156.56Zm-9.92,43q-1.2-10.35-2.39-24.85a.44.44,0,0,0-.88,0q-2.25,16.56-2.91,24.9a.45.45,0,0,0,.45.47h5.29A.44.44,0,0,0,210.21,199.57Z" transform="translate(-50 -130)"/>
      <path class="cls-3" d="M242.26,156.82a1.78,1.78,0,0,1,1.78-1.77h11.84q13.19,0,17.84,1.21a13.68,13.68,0,0,1,7.07,4,12.53,12.53,0,0,1,3,6.16,91.89,91.89,0,0,1,.61,13.34v24.51q0,9.44-.89,12.6a9.5,9.5,0,0,1-3.09,5,12.82,12.82,0,0,1-5.45,2.5,48.72,48.72,0,0,1-9.77.72H244a1.78,1.78,0,0,1-1.78-1.77Zm18.21,10.65v45.15a.46.46,0,0,0,.46.45c2.35-.06,3.81-.59,4.38-1.58s.91-3.91.91-8.58v-27.2a35.18,35.18,0,0,0-.31-6.09,2.9,2.9,0,0,0-1.38-2,8.22,8.22,0,0,0-3.61-.62A.45.45,0,0,0,260.47,167.47Z" transform="translate(-50 -130)"/>
    </g>
  </g>
</svg>
