<svg xmlns="http://www.w3.org/2000/svg" viewBox="0 0 284.47 105.69"><defs><style>.cls-1{fill:#c34a4a;}</style></defs><title>foe_logo_text</title><g id="Layer_2" data-name="Layer 2"><g id="Layer_1-2" data-name="Layer 1"><path class="cls-1" d="M9.18,9V16.9H24.07v7.66H9.18v15H0V1H25.32V9Z"/><path class="cls-1" d="M54.45,39.51l-3-7.56H36.57l-2.82,7.56H23.64L39.78,1h9l16,38.48ZM44.13,11.3l-4.9,13.21h9.68Z"/><path class="cls-1" d="M102.87,39.51l.22-27.23h-.17l-10,27.23H86.4L76.68,12.28h-.17l.22,27.23H68V1H81.2L90,25.7h.22L98.56,1H112V39.51Z"/><path class="cls-1" d="M119.88,39.51V1h9.34V39.51Z"/><path class="cls-1" d="M137.16,39.51V1h9.34V31.41h14.89v8.1Z"/><path class="cls-1" d="M180.25,23.2V39.51H171V23.2L156.5,1h11.25L176,15.27,184.16,1H195Z"/><path class="cls-1" d="M250.3,20.11a21.48,21.48,0,0,1-1.58,8.34,18.86,18.86,0,0,1-4.38,6.46,19.33,19.33,0,0,1-6.65,4.16,23.3,23.3,0,0,1-8.37,1.47A23.06,23.06,0,0,1,221,39.07a19.34,19.34,0,0,1-6.63-4.16A18.86,18.86,0,0,1,210,28.45a21.48,21.48,0,0,1-1.57-8.34A21.28,21.28,0,0,1,210,11.76a18.23,18.23,0,0,1,4.38-6.33,19.33,19.33,0,0,1,6.63-4A23.94,23.94,0,0,1,229.32,0a24.19,24.19,0,0,1,8.37,1.41,19.32,19.32,0,0,1,6.65,4,18.23,18.23,0,0,1,4.38,6.33A21.28,21.28,0,0,1,250.3,20.11Zm-10,0a13.3,13.3,0,0,0-.81-4.68,11.21,11.21,0,0,0-2.26-3.72,10.48,10.48,0,0,0-3.48-2.45,11.13,11.13,0,0,0-4.48-.89,11,11,0,0,0-4.46.89,10.76,10.76,0,0,0-3.47,2.45,10.44,10.44,0,0,0-2.26,3.72,13.77,13.77,0,0,0-.79,4.68,13.65,13.65,0,0,0,.82,4.81,11.36,11.36,0,0,0,2.25,3.77,10.19,10.19,0,0,0,3.45,2.47,11.5,11.5,0,0,0,8.92,0,10.37,10.37,0,0,0,3.47-2.47,11.28,11.28,0,0,0,2.29-3.77A13.88,13.88,0,0,0,240.35,20.11Z"/><path class="cls-1" d="M265.62,9V16.9h14.89v7.66H265.62v15h-9.18V1h25.32V9Z"/><path class="cls-1" d="M0,104.72V66.24H25.87v7.83H9v7.28h16v7.44H9v8H26.84v7.94Z"/><path class="cls-1" d="M64.5,104.72l-3-7.56H46.62l-2.82,7.56H33.69L49.83,66.24h9l16,38.48ZM54.18,76.51,49.29,89.72H59Z"/><path class="cls-1" d="M96.67,74.18v30.54H87.38V74.18H76.51V66.24h31v7.94Z"/><path class="cls-1" d="M117.21,104.72V66.24h25.87v7.83h-16.9v7.28h16v7.44h-16v8h17.88v7.94Z"/><path class="cls-1" d="M176.23,104.72l-8.36-15.27h-3.16v15.27h-9.08V66.24H170.3a25.54,25.54,0,0,1,5.41.57,14.2,14.2,0,0,1,4.73,1.93,10.11,10.11,0,0,1,3.34,3.59A11.21,11.21,0,0,1,185,77.87a10.26,10.26,0,0,1-2.12,6.58,11.57,11.57,0,0,1-5.87,3.8l10.05,16.47ZM175.85,78a3.65,3.65,0,0,0-2-3.5,6.46,6.46,0,0,0-2-.63,16.42,16.42,0,0,0-2.16-.16h-5v9h4.43a14.56,14.56,0,0,0,2.34-.19,7.58,7.58,0,0,0,2.19-.68,4.28,4.28,0,0,0,1.61-1.41A4.2,4.2,0,0,0,175.85,78Z"/><path class="cls-1" d="M197.09,104.72V66.24h9.35v38.48Z"/><path class="cls-1" d="M219.81,104.72V66.24h25.86v7.83h-16.9v7.28h16v7.44h-16v8h17.88v7.94Z"/><path class="cls-1" d="M278.55,76.24a8.52,8.52,0,0,0-3.12-2.42,9,9,0,0,0-3.73-.89,10.9,10.9,0,0,0-1.87.16,4.91,4.91,0,0,0-1.71.62,4.19,4.19,0,0,0-1.28,1.2,3.13,3.13,0,0,0-.52,1.87,3,3,0,0,0,.41,1.63,3.59,3.59,0,0,0,1.2,1.15,10.89,10.89,0,0,0,1.87.89c.72.27,1.54.55,2.45.85,1.3.43,2.66.91,4.07,1.44a15.13,15.13,0,0,1,3.86,2.09,10.91,10.91,0,0,1,2.88,3.23,9.33,9.33,0,0,1,1.14,4.81A12.61,12.61,0,0,1,283,98.6a11.4,11.4,0,0,1-3.29,4,14,14,0,0,1-4.73,2.33,19.73,19.73,0,0,1-5.49.76,22.62,22.62,0,0,1-8-1.44,16.89,16.89,0,0,1-6.42-4.1L261.16,94a11.08,11.08,0,0,0,3.72,2.9A10.09,10.09,0,0,0,269.47,98a9.68,9.68,0,0,0,2-.21,5.27,5.27,0,0,0,1.71-.71,3.53,3.53,0,0,0,1.17-1.31,4.19,4.19,0,0,0,.43-2,3.11,3.11,0,0,0-.54-1.85,5.44,5.44,0,0,0-1.55-1.39,13.4,13.4,0,0,0-2.5-1.14c-1-.34-2.13-.71-3.4-1.11A32.92,32.92,0,0,1,263.2,87a12,12,0,0,1-3.15-2.1,9.57,9.57,0,0,1-2.23-3.09,10.55,10.55,0,0,1-.84-4.43,10.88,10.88,0,0,1,1.3-5.49,11.4,11.4,0,0,1,3.42-3.75,14.89,14.89,0,0,1,4.79-2.15,21.74,21.74,0,0,1,5.38-.68,19.87,19.87,0,0,1,6.65,1.2,17.22,17.22,0,0,1,6,3.53Z"/></g></g></svg>