<svg id="Layer_1" data-name="Layer 1" xmlns="http://www.w3.org/2000/svg" viewBox="0 0 400 400">
  <defs>
    <style>
      .cls-1 {
        fill: #505050;
      }
    </style>
  </defs>
  <title>dots</title>
  <circle class="cls-1" cx="20" cy="20" r="0.5"/>
  <circle class="cls-1" cy="20" r="0.5"/>
  <circle class="cls-1" cx="40" cy="20" r="0.5"/>
  <circle class="cls-1" cx="60" cy="20" r="0.5"/>
  <circle class="cls-1" cx="80" cy="20" r="0.5"/>
  <circle class="cls-1" cx="100" cy="20" r="0.5"/>
  <circle class="cls-1" cx="120" cy="20" r="0.5"/>
  <circle class="cls-1" cx="140" cy="20" r="0.5"/>
  <circle class="cls-1" cx="160" cy="20" r="0.5"/>
  <circle class="cls-1" cx="180.03" cy="20" r="0.5"/>
  <circle class="cls-1" cx="200.03" cy="20" r="0.5"/>
  <circle class="cls-1" cx="220.03" cy="20" r="0.5"/>
  <circle class="cls-1" cx="240.03" cy="20" r="0.5"/>
  <circle class="cls-1" cx="260.03" cy="20" r="0.5"/>
  <circle class="cls-1" cx="280.03" cy="20" r="0.5"/>
  <circle class="cls-1" cx="300.03" cy="20" r="0.5"/>
  <circle class="cls-1" cx="320.03" cy="20" r="0.5"/>
  <circle class="cls-1" cx="340" cy="20" r="0.5"/>
  <circle class="cls-1" cx="360" cy="20" r="0.5"/>
  <circle class="cls-1" cx="380" cy="20" r="0.5"/>
  <circle class="cls-1" cx="400" cy="20" r="0.5"/>
  <circle class="cls-1" cx="20" r="0.5"/>
  <circle class="cls-1" r="0.5"/>
  <circle class="cls-1" cx="40" r="0.5"/>
  <circle class="cls-1" cx="60" r="0.5"/>
  <circle class="cls-1" cx="80" r="0.5"/>
  <circle class="cls-1" cx="100" r="0.5"/>
  <circle class="cls-1" cx="120" r="0.5"/>
  <circle class="cls-1" cx="140" r="0.5"/>
  <circle class="cls-1" cx="160" r="0.5"/>
  <circle class="cls-1" cx="180.03" r="0.5"/>
  <circle class="cls-1" cx="200.03" r="0.5"/>
  <circle class="cls-1" cx="220.03" r="0.5"/>
  <circle class="cls-1" cx="240.03" r="0.5"/>
  <circle class="cls-1" cx="260.03" r="0.5"/>
  <circle class="cls-1" cx="280.03" r="0.5"/>
  <circle class="cls-1" cx="300.03" r="0.5"/>
  <circle class="cls-1" cx="320.03" r="0.5"/>
  <circle class="cls-1" cx="340" r="0.5"/>
  <circle class="cls-1" cx="360" r="0.5"/>
  <circle class="cls-1" cx="380" r="0.5"/>
  <circle class="cls-1" cx="400" r="0.5"/>
  <circle class="cls-1" cx="20" cy="40" r="0.5"/>
  <circle class="cls-1" cy="40" r="0.5"/>
  <circle class="cls-1" cx="40" cy="40" r="0.5"/>
  <circle class="cls-1" cx="60" cy="40" r="0.5"/>
  <circle class="cls-1" cx="80" cy="40" r="0.5"/>
  <circle class="cls-1" cx="100" cy="40" r="0.5"/>
  <circle class="cls-1" cx="120" cy="40" r="0.5"/>
  <circle class="cls-1" cx="140" cy="40" r="0.5"/>
  <circle class="cls-1" cx="160" cy="40" r="0.5"/>
  <circle class="cls-1" cx="180.03" cy="40" r="0.5"/>
  <circle class="cls-1" cx="200.03" cy="40" r="0.5"/>
  <circle class="cls-1" cx="220.03" cy="40" r="0.5"/>
  <circle class="cls-1" cx="240.03" cy="40" r="0.5"/>
  <circle class="cls-1" cx="260.03" cy="40" r="0.5"/>
  <circle class="cls-1" cx="280.03" cy="40" r="0.5"/>
  <circle class="cls-1" cx="300.03" cy="40" r="0.5"/>
  <circle class="cls-1" cx="320.03" cy="40" r="0.5"/>
  <circle class="cls-1" cx="340" cy="40" r="0.5"/>
  <circle class="cls-1" cx="360" cy="40" r="0.5"/>
  <circle class="cls-1" cx="380" cy="40" r="0.5"/>
  <circle class="cls-1" cx="400" cy="40" r="0.5"/>
  <circle class="cls-1" cx="20" cy="60" r="0.5"/>
  <circle class="cls-1" cy="60" r="0.5"/>
  <circle class="cls-1" cx="40" cy="60" r="0.5"/>
  <circle class="cls-1" cx="60" cy="60" r="0.5"/>
  <circle class="cls-1" cx="80" cy="60" r="0.5"/>
  <circle class="cls-1" cx="100" cy="60" r="0.5"/>
  <circle class="cls-1" cx="120" cy="60" r="0.5"/>
  <circle class="cls-1" cx="140" cy="60" r="0.5"/>
  <circle class="cls-1" cx="160" cy="60" r="0.5"/>
  <circle class="cls-1" cx="180.03" cy="60" r="0.5"/>
  <circle class="cls-1" cx="200.03" cy="60" r="0.5"/>
  <circle class="cls-1" cx="220.03" cy="60" r="0.5"/>
  <circle class="cls-1" cx="240.03" cy="60" r="0.5"/>
  <circle class="cls-1" cx="260.03" cy="60" r="0.5"/>
  <circle class="cls-1" cx="280.03" cy="60" r="0.5"/>
  <circle class="cls-1" cx="300.03" cy="60" r="0.5"/>
  <circle class="cls-1" cx="320.03" cy="60" r="0.5"/>
  <circle class="cls-1" cx="340" cy="60" r="0.5"/>
  <circle class="cls-1" cx="360" cy="60" r="0.5"/>
  <circle class="cls-1" cx="380" cy="60" r="0.5"/>
  <circle class="cls-1" cx="400" cy="60" r="0.5"/>
  <circle class="cls-1" cx="20" cy="80" r="0.5"/>
  <circle class="cls-1" cy="80" r="0.5"/>
  <circle class="cls-1" cx="40" cy="80" r="0.5"/>
  <circle class="cls-1" cx="60" cy="80" r="0.5"/>
  <circle class="cls-1" cx="80" cy="80" r="0.5"/>
  <circle class="cls-1" cx="100" cy="80" r="0.5"/>
  <circle class="cls-1" cx="120" cy="80" r="0.5"/>
  <circle class="cls-1" cx="140" cy="80" r="0.5"/>
  <circle class="cls-1" cx="160" cy="80" r="0.5"/>
  <circle class="cls-1" cx="180.03" cy="80" r="0.5"/>
  <circle class="cls-1" cx="200.03" cy="80" r="0.5"/>
  <circle class="cls-1" cx="220.03" cy="80" r="0.5"/>
  <circle class="cls-1" cx="240.03" cy="80" r="0.5"/>
  <circle class="cls-1" cx="260.03" cy="80" r="0.5"/>
  <circle class="cls-1" cx="280.03" cy="80" r="0.5"/>
  <circle class="cls-1" cx="300.03" cy="80" r="0.5"/>
  <circle class="cls-1" cx="320.03" cy="80" r="0.5"/>
  <circle class="cls-1" cx="340" cy="80" r="0.5"/>
  <circle class="cls-1" cx="360" cy="80" r="0.5"/>
  <circle class="cls-1" cx="380" cy="80" r="0.5"/>
  <circle class="cls-1" cx="400" cy="80" r="0.5"/>
  <circle class="cls-1" cx="20" cy="100" r="0.5"/>
  <circle class="cls-1" cy="100" r="0.5"/>
  <circle class="cls-1" cx="40" cy="100" r="0.5"/>
  <circle class="cls-1" cx="60" cy="100" r="0.5"/>
  <circle class="cls-1" cx="80" cy="100" r="0.5"/>
  <circle class="cls-1" cx="100" cy="100" r="0.5"/>
  <circle class="cls-1" cx="120" cy="100" r="0.5"/>
  <circle class="cls-1" cx="140" cy="100" r="0.5"/>
  <circle class="cls-1" cx="160" cy="100" r="0.5"/>
  <circle class="cls-1" cx="180.03" cy="100" r="0.5"/>
  <circle class="cls-1" cx="200.03" cy="100" r="0.5"/>
  <circle class="cls-1" cx="220.03" cy="100" r="0.5"/>
  <circle class="cls-1" cx="240.03" cy="100" r="0.5"/>
  <circle class="cls-1" cx="260.03" cy="100" r="0.5"/>
  <circle class="cls-1" cx="280.03" cy="100" r="0.5"/>
  <circle class="cls-1" cx="300.03" cy="100" r="0.5"/>
  <circle class="cls-1" cx="320.03" cy="100" r="0.5"/>
  <circle class="cls-1" cx="340" cy="100" r="0.5"/>
  <circle class="cls-1" cx="360" cy="100" r="0.5"/>
  <circle class="cls-1" cx="380" cy="100" r="0.5"/>
  <circle class="cls-1" cx="400" cy="100" r="0.5"/>
  <circle class="cls-1" cx="20" cy="120" r="0.5"/>
  <circle class="cls-1" cy="120" r="0.5"/>
  <circle class="cls-1" cx="40" cy="120" r="0.5"/>
  <circle class="cls-1" cx="60" cy="120" r="0.5"/>
  <circle class="cls-1" cx="80" cy="120" r="0.5"/>
  <circle class="cls-1" cx="100" cy="120" r="0.5"/>
  <circle class="cls-1" cx="120" cy="120" r="0.5"/>
  <circle class="cls-1" cx="140" cy="120" r="0.5"/>
  <circle class="cls-1" cx="160" cy="120" r="0.5"/>
  <circle class="cls-1" cx="180.03" cy="120" r="0.5"/>
  <circle class="cls-1" cx="200.03" cy="120" r="0.5"/>
  <circle class="cls-1" cx="220.03" cy="120" r="0.5"/>
  <circle class="cls-1" cx="240.03" cy="120" r="0.5"/>
  <circle class="cls-1" cx="260.03" cy="120" r="0.5"/>
  <circle class="cls-1" cx="280.03" cy="120" r="0.5"/>
  <circle class="cls-1" cx="300.03" cy="120" r="0.5"/>
  <circle class="cls-1" cx="320.03" cy="120" r="0.5"/>
  <circle class="cls-1" cx="340" cy="120" r="0.5"/>
  <circle class="cls-1" cx="360" cy="120" r="0.5"/>
  <circle class="cls-1" cx="380" cy="120" r="0.5"/>
  <circle class="cls-1" cx="400" cy="120" r="0.5"/>
  <circle class="cls-1" cx="20" cy="140" r="0.5"/>
  <circle class="cls-1" cy="140" r="0.5"/>
  <circle class="cls-1" cx="40" cy="140" r="0.5"/>
  <circle class="cls-1" cx="60" cy="140" r="0.5"/>
  <circle class="cls-1" cx="80" cy="140" r="0.5"/>
  <circle class="cls-1" cx="100" cy="140" r="0.5"/>
  <circle class="cls-1" cx="120" cy="140" r="0.5"/>
  <circle class="cls-1" cx="140" cy="140" r="0.5"/>
  <circle class="cls-1" cx="160" cy="140" r="0.5"/>
  <circle class="cls-1" cx="180.03" cy="140" r="0.5"/>
  <circle class="cls-1" cx="200.03" cy="140" r="0.5"/>
  <circle class="cls-1" cx="220.03" cy="140" r="0.5"/>
  <circle class="cls-1" cx="240.03" cy="140" r="0.5"/>
  <circle class="cls-1" cx="260.03" cy="140" r="0.5"/>
  <circle class="cls-1" cx="280.03" cy="140" r="0.5"/>
  <circle class="cls-1" cx="300.03" cy="140" r="0.5"/>
  <circle class="cls-1" cx="320.03" cy="140" r="0.5"/>
  <circle class="cls-1" cx="340" cy="140" r="0.5"/>
  <circle class="cls-1" cx="360" cy="140" r="0.5"/>
  <circle class="cls-1" cx="380" cy="140" r="0.5"/>
  <circle class="cls-1" cx="400" cy="140" r="0.5"/>
  <circle class="cls-1" cx="20" cy="160" r="0.5"/>
  <circle class="cls-1" cy="160" r="0.5"/>
  <circle class="cls-1" cx="40" cy="160" r="0.5"/>
  <circle class="cls-1" cx="60" cy="160" r="0.5"/>
  <circle class="cls-1" cx="80" cy="160" r="0.5"/>
  <circle class="cls-1" cx="100" cy="160" r="0.5"/>
  <circle class="cls-1" cx="120" cy="160" r="0.5"/>
  <circle class="cls-1" cx="140" cy="160" r="0.5"/>
  <circle class="cls-1" cx="160" cy="160" r="0.5"/>
  <circle class="cls-1" cx="180.03" cy="160" r="0.5"/>
  <circle class="cls-1" cx="200.03" cy="160" r="0.5"/>
  <circle class="cls-1" cx="220.03" cy="160" r="0.5"/>
  <circle class="cls-1" cx="240.03" cy="160" r="0.5"/>
  <circle class="cls-1" cx="260.03" cy="160" r="0.5"/>
  <circle class="cls-1" cx="280.03" cy="160" r="0.5"/>
  <circle class="cls-1" cx="300.03" cy="160" r="0.5"/>
  <circle class="cls-1" cx="320.03" cy="160" r="0.5"/>
  <circle class="cls-1" cx="340" cy="160" r="0.5"/>
  <circle class="cls-1" cx="360" cy="160" r="0.5"/>
  <circle class="cls-1" cx="380" cy="160" r="0.5"/>
  <circle class="cls-1" cx="400" cy="160" r="0.5"/>
  <circle class="cls-1" cx="20" cy="180" r="0.5"/>
  <circle class="cls-1" cy="180" r="0.5"/>
  <circle class="cls-1" cx="40" cy="180" r="0.5"/>
  <circle class="cls-1" cx="60" cy="180" r="0.5"/>
  <circle class="cls-1" cx="80" cy="180" r="0.5"/>
  <circle class="cls-1" cx="100" cy="180" r="0.5"/>
  <circle class="cls-1" cx="120" cy="180" r="0.5"/>
  <circle class="cls-1" cx="140" cy="180" r="0.5"/>
  <circle class="cls-1" cx="160" cy="180" r="0.5"/>
  <circle class="cls-1" cx="180.03" cy="180" r="0.5"/>
  <circle class="cls-1" cx="200.03" cy="180" r="0.5"/>
  <circle class="cls-1" cx="220.03" cy="180" r="0.5"/>
  <circle class="cls-1" cx="240.03" cy="180" r="0.5"/>
  <circle class="cls-1" cx="260.03" cy="180" r="0.5"/>
  <circle class="cls-1" cx="280.03" cy="180" r="0.5"/>
  <circle class="cls-1" cx="300.03" cy="180" r="0.5"/>
  <circle class="cls-1" cx="320.03" cy="180" r="0.5"/>
  <circle class="cls-1" cx="340" cy="180" r="0.5"/>
  <circle class="cls-1" cx="360" cy="180" r="0.5"/>
  <circle class="cls-1" cx="380" cy="180" r="0.5"/>
  <circle class="cls-1" cx="400" cy="180" r="0.5"/>
  <circle class="cls-1" cx="20" cy="200" r="0.5"/>
  <circle class="cls-1" cy="200" r="0.5"/>
  <circle class="cls-1" cx="40" cy="200" r="0.5"/>
  <circle class="cls-1" cx="60" cy="200" r="0.5"/>
  <circle class="cls-1" cx="80" cy="200" r="0.5"/>
  <circle class="cls-1" cx="100" cy="200" r="0.5"/>
  <circle class="cls-1" cx="120" cy="200" r="0.5"/>
  <circle class="cls-1" cx="140" cy="200" r="0.5"/>
  <circle class="cls-1" cx="160" cy="200" r="0.5"/>
  <circle class="cls-1" cx="180.03" cy="200" r="0.5"/>
  <circle class="cls-1" cx="200.03" cy="200" r="0.5"/>
  <circle class="cls-1" cx="220.03" cy="200" r="0.5"/>
  <circle class="cls-1" cx="240.03" cy="200" r="0.5"/>
  <circle class="cls-1" cx="260.03" cy="200" r="0.5"/>
  <circle class="cls-1" cx="280.03" cy="200" r="0.5"/>
  <circle class="cls-1" cx="300.03" cy="200" r="0.5"/>
  <circle class="cls-1" cx="320.03" cy="200" r="0.5"/>
  <circle class="cls-1" cx="340" cy="200" r="0.5"/>
  <circle class="cls-1" cx="360" cy="200" r="0.5"/>
  <circle class="cls-1" cx="380" cy="200" r="0.5"/>
  <circle class="cls-1" cx="400" cy="200" r="0.5"/>
  <circle class="cls-1" cx="20" cy="220" r="0.5"/>
  <circle class="cls-1" cy="220" r="0.5"/>
  <circle class="cls-1" cx="40" cy="220" r="0.5"/>
  <circle class="cls-1" cx="60" cy="220" r="0.5"/>
  <circle class="cls-1" cx="80" cy="220" r="0.5"/>
  <circle class="cls-1" cx="100" cy="220" r="0.5"/>
  <circle class="cls-1" cx="120" cy="220" r="0.5"/>
  <circle class="cls-1" cx="140" cy="220" r="0.5"/>
  <circle class="cls-1" cx="160" cy="220" r="0.5"/>
  <circle class="cls-1" cx="180.03" cy="220" r="0.5"/>
  <circle class="cls-1" cx="200.03" cy="220" r="0.5"/>
  <circle class="cls-1" cx="220.03" cy="220" r="0.5"/>
  <circle class="cls-1" cx="240.03" cy="220" r="0.5"/>
  <circle class="cls-1" cx="260.03" cy="220" r="0.5"/>
  <circle class="cls-1" cx="280.03" cy="220" r="0.5"/>
  <circle class="cls-1" cx="300.03" cy="220" r="0.5"/>
  <circle class="cls-1" cx="320.03" cy="220" r="0.5"/>
  <circle class="cls-1" cx="340" cy="220" r="0.5"/>
  <circle class="cls-1" cx="360" cy="220" r="0.5"/>
  <circle class="cls-1" cx="380" cy="220" r="0.5"/>
  <circle class="cls-1" cx="400" cy="220" r="0.5"/>
  <circle class="cls-1" cx="20" cy="240" r="0.5"/>
  <circle class="cls-1" cy="240" r="0.5"/>
  <circle class="cls-1" cx="40" cy="240" r="0.5"/>
  <circle class="cls-1" cx="60" cy="240" r="0.5"/>
  <circle class="cls-1" cx="80" cy="240" r="0.5"/>
  <circle class="cls-1" cx="100" cy="240" r="0.5"/>
  <circle class="cls-1" cx="120" cy="240" r="0.5"/>
  <circle class="cls-1" cx="140" cy="240" r="0.5"/>
  <circle class="cls-1" cx="160" cy="240" r="0.5"/>
  <circle class="cls-1" cx="180.03" cy="240" r="0.5"/>
  <circle class="cls-1" cx="200.03" cy="240" r="0.5"/>
  <circle class="cls-1" cx="220.03" cy="240" r="0.5"/>
  <circle class="cls-1" cx="240.03" cy="240" r="0.5"/>
  <circle class="cls-1" cx="260.03" cy="240" r="0.5"/>
  <circle class="cls-1" cx="280.03" cy="240" r="0.5"/>
  <circle class="cls-1" cx="300.03" cy="240" r="0.5"/>
  <circle class="cls-1" cx="320.03" cy="240" r="0.5"/>
  <circle class="cls-1" cx="340" cy="240" r="0.5"/>
  <circle class="cls-1" cx="360" cy="240" r="0.5"/>
  <circle class="cls-1" cx="380" cy="240" r="0.5"/>
  <circle class="cls-1" cx="400" cy="240" r="0.5"/>
  <circle class="cls-1" cx="20" cy="260" r="0.5"/>
  <circle class="cls-1" cy="260" r="0.5"/>
  <circle class="cls-1" cx="40" cy="260" r="0.5"/>
  <circle class="cls-1" cx="60" cy="260" r="0.5"/>
  <circle class="cls-1" cx="80" cy="260" r="0.5"/>
  <circle class="cls-1" cx="100" cy="260" r="0.5"/>
  <circle class="cls-1" cx="120" cy="260" r="0.5"/>
  <circle class="cls-1" cx="140" cy="260" r="0.5"/>
  <circle class="cls-1" cx="160" cy="260" r="0.5"/>
  <circle class="cls-1" cx="180.03" cy="260" r="0.5"/>
  <circle class="cls-1" cx="200.03" cy="260" r="0.5"/>
  <circle class="cls-1" cx="220.03" cy="260" r="0.5"/>
  <circle class="cls-1" cx="240.03" cy="260" r="0.5"/>
  <circle class="cls-1" cx="260.03" cy="260" r="0.5"/>
  <circle class="cls-1" cx="280.03" cy="260" r="0.5"/>
  <circle class="cls-1" cx="300.03" cy="260" r="0.5"/>
  <circle class="cls-1" cx="320.03" cy="260" r="0.5"/>
  <circle class="cls-1" cx="340" cy="260" r="0.5"/>
  <circle class="cls-1" cx="360" cy="260" r="0.5"/>
  <circle class="cls-1" cx="380" cy="260" r="0.5"/>
  <circle class="cls-1" cx="400" cy="260" r="0.5"/>
  <circle class="cls-1" cx="20" cy="280" r="0.5"/>
  <circle class="cls-1" cy="280" r="0.5"/>
  <circle class="cls-1" cx="40" cy="280" r="0.5"/>
  <circle class="cls-1" cx="60" cy="280" r="0.5"/>
  <circle class="cls-1" cx="80" cy="280" r="0.5"/>
  <circle class="cls-1" cx="100" cy="280" r="0.5"/>
  <circle class="cls-1" cx="120" cy="280" r="0.5"/>
  <circle class="cls-1" cx="140" cy="280" r="0.5"/>
  <circle class="cls-1" cx="160" cy="280" r="0.5"/>
  <circle class="cls-1" cx="180.03" cy="280" r="0.5"/>
  <circle class="cls-1" cx="200.03" cy="280" r="0.5"/>
  <circle class="cls-1" cx="220.03" cy="280" r="0.5"/>
  <circle class="cls-1" cx="240.03" cy="280" r="0.5"/>
  <circle class="cls-1" cx="260.03" cy="280" r="0.5"/>
  <circle class="cls-1" cx="280.03" cy="280" r="0.5"/>
  <circle class="cls-1" cx="300.03" cy="280" r="0.5"/>
  <circle class="cls-1" cx="320.03" cy="280" r="0.5"/>
  <circle class="cls-1" cx="340" cy="280" r="0.5"/>
  <circle class="cls-1" cx="360" cy="280" r="0.5"/>
  <circle class="cls-1" cx="380" cy="280" r="0.5"/>
  <circle class="cls-1" cx="400" cy="280" r="0.5"/>
  <circle class="cls-1" cx="20" cy="300" r="0.5"/>
  <circle class="cls-1" cy="300" r="0.5"/>
  <circle class="cls-1" cx="40" cy="300" r="0.5"/>
  <circle class="cls-1" cx="60" cy="300" r="0.5"/>
  <circle class="cls-1" cx="80" cy="300" r="0.5"/>
  <circle class="cls-1" cx="100" cy="300" r="0.5"/>
  <circle class="cls-1" cx="120" cy="300" r="0.5"/>
  <circle class="cls-1" cx="140" cy="300" r="0.5"/>
  <circle class="cls-1" cx="160" cy="300" r="0.5"/>
  <circle class="cls-1" cx="180.03" cy="300" r="0.5"/>
  <circle class="cls-1" cx="200.03" cy="300" r="0.5"/>
  <circle class="cls-1" cx="220.03" cy="300" r="0.5"/>
  <circle class="cls-1" cx="240.03" cy="300" r="0.5"/>
  <circle class="cls-1" cx="260.03" cy="300" r="0.5"/>
  <circle class="cls-1" cx="280.03" cy="300" r="0.5"/>
  <circle class="cls-1" cx="300.03" cy="300" r="0.5"/>
  <circle class="cls-1" cx="320.03" cy="300" r="0.5"/>
  <circle class="cls-1" cx="340" cy="300" r="0.5"/>
  <circle class="cls-1" cx="360" cy="300" r="0.5"/>
  <circle class="cls-1" cx="380" cy="300" r="0.5"/>
  <circle class="cls-1" cx="400" cy="300" r="0.5"/>
  <circle class="cls-1" cx="20" cy="320" r="0.5"/>
  <circle class="cls-1" cy="320" r="0.5"/>
  <circle class="cls-1" cx="40" cy="320" r="0.5"/>
  <circle class="cls-1" cx="60" cy="320" r="0.5"/>
  <circle class="cls-1" cx="80" cy="320" r="0.5"/>
  <circle class="cls-1" cx="100" cy="320" r="0.5"/>
  <circle class="cls-1" cx="120" cy="320" r="0.5"/>
  <circle class="cls-1" cx="140" cy="320" r="0.5"/>
  <circle class="cls-1" cx="160" cy="320" r="0.5"/>
  <circle class="cls-1" cx="180.03" cy="320" r="0.5"/>
  <circle class="cls-1" cx="200.03" cy="320" r="0.5"/>
  <circle class="cls-1" cx="220.03" cy="320" r="0.5"/>
  <circle class="cls-1" cx="240.03" cy="320" r="0.5"/>
  <circle class="cls-1" cx="260.03" cy="320" r="0.5"/>
  <circle class="cls-1" cx="280.03" cy="320" r="0.5"/>
  <circle class="cls-1" cx="300.03" cy="320" r="0.5"/>
  <circle class="cls-1" cx="320.03" cy="320" r="0.5"/>
  <circle class="cls-1" cx="340" cy="320" r="0.5"/>
  <circle class="cls-1" cx="360" cy="320" r="0.5"/>
  <circle class="cls-1" cx="380" cy="320" r="0.5"/>
  <circle class="cls-1" cx="400" cy="320" r="0.5"/>
  <circle class="cls-1" cx="20" cy="340.01" r="0.5"/>
  <circle class="cls-1" cy="340.01" r="0.5"/>
  <circle class="cls-1" cx="40" cy="340.01" r="0.5"/>
  <circle class="cls-1" cx="60" cy="340.01" r="0.5"/>
  <circle class="cls-1" cx="80" cy="340.01" r="0.5"/>
  <circle class="cls-1" cx="100" cy="340.01" r="0.5"/>
  <circle class="cls-1" cx="120" cy="340.01" r="0.5"/>
  <circle class="cls-1" cx="140" cy="340.01" r="0.5"/>
  <circle class="cls-1" cx="160" cy="340.01" r="0.5"/>
  <circle class="cls-1" cx="180.03" cy="340.01" r="0.5"/>
  <circle class="cls-1" cx="200.03" cy="340.01" r="0.5"/>
  <circle class="cls-1" cx="220.03" cy="340.01" r="0.5"/>
  <circle class="cls-1" cx="240.03" cy="340.01" r="0.5"/>
  <circle class="cls-1" cx="260.03" cy="340.01" r="0.5"/>
  <circle class="cls-1" cx="280.03" cy="340.01" r="0.5"/>
  <circle class="cls-1" cx="300.03" cy="340.01" r="0.5"/>
  <circle class="cls-1" cx="320.03" cy="340.01" r="0.5"/>
  <circle class="cls-1" cx="340" cy="340" r="0.5"/>
  <circle class="cls-1" cx="360" cy="340" r="0.5"/>
  <circle class="cls-1" cx="380" cy="340" r="0.5"/>
  <circle class="cls-1" cx="400" cy="340" r="0.5"/>
  <circle class="cls-1" cx="20" cy="360.01" r="0.5"/>
  <circle class="cls-1" cy="360.01" r="0.5"/>
  <circle class="cls-1" cx="40" cy="360.01" r="0.5"/>
  <circle class="cls-1" cx="60" cy="360.01" r="0.5"/>
  <circle class="cls-1" cx="80" cy="360.01" r="0.5"/>
  <circle class="cls-1" cx="100" cy="360.01" r="0.5"/>
  <circle class="cls-1" cx="120" cy="360.01" r="0.5"/>
  <circle class="cls-1" cx="140" cy="360.01" r="0.5"/>
  <circle class="cls-1" cx="160" cy="360.01" r="0.5"/>
  <circle class="cls-1" cx="180.03" cy="360.01" r="0.5"/>
  <circle class="cls-1" cx="200.03" cy="360.01" r="0.5"/>
  <circle class="cls-1" cx="220.03" cy="360.01" r="0.5"/>
  <circle class="cls-1" cx="240.03" cy="360.01" r="0.5"/>
  <circle class="cls-1" cx="260.03" cy="360.01" r="0.5"/>
  <circle class="cls-1" cx="280.03" cy="360.01" r="0.5"/>
  <circle class="cls-1" cx="300.03" cy="360.01" r="0.5"/>
  <circle class="cls-1" cx="320.03" cy="360.01" r="0.5"/>
  <circle class="cls-1" cx="340" cy="360" r="0.5"/>
  <circle class="cls-1" cx="360" cy="360" r="0.5"/>
  <circle class="cls-1" cx="380" cy="360" r="0.5"/>
  <circle class="cls-1" cx="400" cy="360" r="0.5"/>
  <circle class="cls-1" cx="20" cy="380.01" r="0.5"/>
  <circle class="cls-1" cy="380.01" r="0.5"/>
  <circle class="cls-1" cx="40" cy="380.01" r="0.5"/>
  <circle class="cls-1" cx="60" cy="380.01" r="0.5"/>
  <circle class="cls-1" cx="80" cy="380.01" r="0.5"/>
  <circle class="cls-1" cx="100" cy="380.01" r="0.5"/>
  <circle class="cls-1" cx="120" cy="380.01" r="0.5"/>
  <circle class="cls-1" cx="140" cy="380.01" r="0.5"/>
  <circle class="cls-1" cx="160" cy="380.01" r="0.5"/>
  <circle class="cls-1" cx="180.03" cy="380.01" r="0.5"/>
  <circle class="cls-1" cx="200.03" cy="380.01" r="0.5"/>
  <circle class="cls-1" cx="220.03" cy="380.01" r="0.5"/>
  <circle class="cls-1" cx="240.03" cy="380.01" r="0.5"/>
  <circle class="cls-1" cx="260.03" cy="380.01" r="0.5"/>
  <circle class="cls-1" cx="280.03" cy="380.01" r="0.5"/>
  <circle class="cls-1" cx="300.03" cy="380.01" r="0.5"/>
  <circle class="cls-1" cx="320.03" cy="380.01" r="0.5"/>
  <circle class="cls-1" cx="340" cy="380" r="0.5"/>
  <circle class="cls-1" cx="360" cy="380" r="0.5"/>
  <circle class="cls-1" cx="380" cy="380" r="0.5"/>
  <circle class="cls-1" cx="400" cy="380" r="0.5"/>
  <circle class="cls-1" cx="20" cy="400.01" r="0.5"/>
  <circle class="cls-1" cy="400.01" r="0.5"/>
  <circle class="cls-1" cx="40" cy="400.01" r="0.5"/>
  <circle class="cls-1" cx="60" cy="400.01" r="0.5"/>
  <circle class="cls-1" cx="80" cy="400.01" r="0.5"/>
  <circle class="cls-1" cx="100" cy="400.01" r="0.5"/>
  <circle class="cls-1" cx="120" cy="400.01" r="0.5"/>
  <circle class="cls-1" cx="140" cy="400.01" r="0.5"/>
  <circle class="cls-1" cx="160" cy="400.01" r="0.5"/>
  <circle class="cls-1" cx="180.03" cy="400.01" r="0.5"/>
  <circle class="cls-1" cx="200.03" cy="400.01" r="0.5"/>
  <circle class="cls-1" cx="220.03" cy="400.01" r="0.5"/>
  <circle class="cls-1" cx="240.03" cy="400.01" r="0.5"/>
  <circle class="cls-1" cx="260.03" cy="400.01" r="0.5"/>
  <circle class="cls-1" cx="280.03" cy="400.01" r="0.5"/>
  <circle class="cls-1" cx="300.03" cy="400.01" r="0.5"/>
  <circle class="cls-1" cx="320.03" cy="400.01" r="0.5"/>
  <circle class="cls-1" cx="340" cy="400" r="0.5"/>
  <circle class="cls-1" cx="360" cy="400" r="0.5"/>
  <circle class="cls-1" cx="380" cy="400" r="0.5"/>
  <circle class="cls-1" cx="400" cy="400" r="0.5"/>
</svg>
